<?xml version="1.0" encoding="UTF-8"?>
<!DOCTYPE svg PUBLIC "-//W3C//DTD SVG 1.1//EN" "http://www.w3.org/Graphics/SVG/1.1/DTD/svg11.dtd">
<!-- Creator: CorelDRAW X6 -->
<svg xmlns="http://www.w3.org/2000/svg" xml:space="preserve" width="308.737mm" height="94.9959mm" version="1.1" style="shape-rendering:geometricPrecision; text-rendering:geometricPrecision; image-rendering:optimizeQuality; fill-rule:evenodd; clip-rule:evenodd"
viewBox="0 0 6439 1981"
 xmlns:xlink="http://www.w3.org/1999/xlink">
 <defs>
  <style type="text/css">
   <![CDATA[
    .fil2 {fill:none}
    .fil1 {fill:#099E97}
    .fil0 {fill:#099E97;fill-rule:nonzero}
   ]]>
  </style>
 </defs>
 <g id="Layer_x0020_1">
  <metadata id="CorelCorpID_0Corel-Layer"/>
  <g id="_1431171920">
   <path class="fil0" d="M2865 921c-9,-16 -18,-32 -25,-49 -7,-17 -13,-34 -18,-51 -5,-18 -9,-36 -11,-55 -2,-18 -4,-37 -4,-56 0,-56 11,-109 31,-158 21,-51 52,-96 90,-134 38,-38 83,-69 134,-90 49,-20 102,-31 158,-31 56,0 109,11 158,31l0 0 0 0c51,21 96,52 134,90 38,38 69,83 90,134 20,49 31,102 31,158 0,19 -1,37 -4,56 -3,19 -6,37 -11,55 -5,18 -11,35 -18,52 -7,17 -15,33 -25,48l0 1 0 0 -293 522c-3,6 -7,11 -12,16 -5,5 -10,9 -15,12 -5,3 -11,5 -17,7 -6,2 -12,2 -18,2 -6,0 -12,-1 -18,-2 -6,-2 -11,-4 -17,-7 -6,-3 -11,-7 -15,-12 -4,-5 -8,-10 -12,-16l-293 -522 0 -1 0 0 0 0zm66 649c-14,-23 -8,-53 15,-67 23,-14 53,-8 67,15 8,12 21,23 39,33l2 1c45,24 110,35 175,34 65,-1 128,-14 168,-40 13,-8 23,-18 29,-28 13,-24 42,-32 66,-20 24,13 32,42 20,66 -14,26 -35,47 -62,64 -55,35 -137,53 -219,55 -80,1 -162,-14 -221,-45 -1,0 -2,-1 -3,-1 -31,-17 -57,-39 -74,-66zm289 -1060c55,0 106,23 142,59 36,36 59,87 59,142 0,55 -23,106 -59,142 -36,36 -87,59 -142,59 -55,0 -106,-22 -142,-59 -1,-1 -1,-1 -2,-2 -35,-36 -57,-86 -57,-140 0,-55 22,-106 59,-142 36,-36 87,-59 142,-59zm94 107c-24,-24 -57,-39 -94,-39 -37,0 -70,15 -94,39 -24,24 -39,57 -39,94 0,36 14,69 37,92l2 2c24,24 57,39 94,39 37,0 70,-15 94,-39 24,-24 39,-57 39,-94 0,-37 -15,-70 -39,-94zm-407 181c4,14 9,27 14,40 6,13 12,26 19,38l1 1m0 0l0 0 0 1 0 0 278 495 278 -495c0,0 1,-1 1,-1 7,-12 14,-25 20,-39 6,-13 11,-27 15,-41 4,-14 7,-28 9,-43 2,-14 3,-29 3,-44 0,-44 -9,-86 -25,-124 -16,-40 -41,-76 -71,-106l0 0c-30,-30 -66,-54 -106,-71l0 0c-38,-16 -80,-24 -124,-24 -44,0 -86,9 -124,25l0 0c-40,16 -76,41 -106,71l-1 0c-30,30 -54,65 -70,105 -16,38 -25,80 -25,124 0,15 1,30 3,44 2,15 5,29 9,43m437 -388c-5,-2 -7,-8 -5,-12m-119 102c28,0 56,6 81,16 26,11 49,26 68,46 19,19 35,43 46,68 10,25 16,52 16,81 0,28 -6,56 -16,81 -11,26 -26,49 -46,68 -19,19 -43,35 -68,46 -25,10 -52,16 -81,16 -28,0 -56,-6 -81,-16 -26,-11 -49,-26 -68,-46l-1 -1 -1 -1 0 0 0 0 -1 -1 0 0c-19,-19 -34,-42 -44,-67 -10,-24 -15,-51 -15,-79 0,-28 6,-56 16,-81 11,-26 26,-49 46,-68l0 0c19,-19 43,-35 68,-46 25,-10 52,-16 81,-16zm87 124c-11,-11 -25,-21 -40,-27l0 0c-14,-6 -30,-9 -47,-9 -17,0 -33,3 -47,9l0 0c-15,6 -29,15 -40,27 -11,11 -21,25 -27,40l0 0c-6,14 -9,30 -9,47 0,16 3,32 9,46 6,15 15,28 25,39l2 2 0 0 0 0c11,11 25,21 40,27l0 0c14,6 30,9 47,9 17,0 33,-3 47,-9l0 0c15,-6 29,-15 40,-27 22,-22 36,-53 36,-87 0,-17 -3,-33 -9,-47l0 0c-6,-15 -15,-29 -27,-40z"/>
   <path class="fil1" d="M3725 1269l101 16c61,9 43,86 -7,79 -29,-4 -59,-8 -88,-12 -27,-4 -91,-16 -91,-53l43 -387c5,-44 85,-53 79,3l-37 354zm-2902 -174l-135 224c-18,29 -78,17 -81,-17l-26 -349c-4,-55 71,-63 76,-6l21 240c9,-14 17,-29 25,-43 24,-41 48,-83 71,-124 22,-38 71,-38 93,-1 38,63 76,127 115,190l50 -286c8,-46 86,-36 77,22l-62 366c-6,33 -67,42 -84,14l-140 -228zm652 87l0 0 -3 3c-36,36 -85,57 -137,57 -51,0 -100,-20 -137,-57l0 0c-36,-36 -56,-85 -56,-136 0,-51 20,-100 57,-137 1,-1 2,-2 2,-2 36,-35 84,-54 134,-54 51,0 100,20 137,57 36,36 57,85 57,137 0,50 -19,98 -54,134zm575 -14l0 127c0,57 -78,50 -78,6l0 -363c0,-51 78,-49 78,-2l0 131 211 -161c49,-37 97,23 46,62l-192 149 214 203c45,42 -7,102 -54,58l-225 -210zm692 -44c-4,17 -19,30 -38,30l-118 0c-20,0 -36,-15 -38,-35l-124 186c-30,44 -86,-7 -65,-40 43,-66 86,-132 129,-197 26,-40 53,-80 80,-119 16,-23 33,-46 51,-67 21,-24 64,-30 81,1l205 371c33,59 -37,96 -65,46l-97 -175zm-1296 223l-221 0c-55,0 -56,-78 2,-78l215 0c60,0 56,78 4,78zm214 -179l0 127c0,57 -78,50 -78,6l0 -363c0,-51 78,-49 78,-2l0 131 211 -161c49,-37 97,23 46,62l-192 149 214 203c45,42 -7,102 -54,58l-225 -210zm2565 14l0 0 -3 3c-36,36 -85,57 -137,57 -51,0 -100,-20 -137,-57l0 0c-36,-36 -56,-85 -56,-136 0,-51 20,-100 57,-137 1,-1 2,-2 2,-2 36,-35 84,-54 134,-54 51,0 100,20 137,57 36,36 57,85 57,137 0,50 -19,98 -54,134zm-29 164l-221 0c-55,0 -56,-78 2,-78l215 0c60,0 56,78 4,78zm604 -179l0 127c0,57 -78,50 -78,6l0 -363c0,-51 78,-49 78,-2l0 131 211 -161c49,-37 97,23 46,62l-192 149 214 203c45,42 -7,102 -54,58l-225 -210zm692 -44c-4,17 -19,30 -38,30l-118 0c-20,0 -36,-15 -38,-35l-124 186c-30,44 -86,-7 -65,-40 43,-66 86,-132 129,-197 26,-40 53,-80 80,-119 16,-23 33,-46 51,-67 21,-24 64,-31 82,0l205 371c33,59 -37,96 -65,46l-97 -175zm-1082 44l0 127c0,57 -78,50 -78,6l0 -363c0,-51 78,-49 78,-2l0 131 211 -161c49,-37 97,23 46,62l-192 149 214 203c45,42 -7,102 -54,58l-225 -210zm-2992 -44c19,-21 30,-47 30,-76 0,-30 -12,-58 -33,-79 -21,-21 -49,-33 -79,-33 -29,0 -56,11 -77,31 -1,1 -1,1 -2,2 -21,21 -33,49 -33,79 0,30 12,58 32,79l0 0c21,21 49,32 79,32 30,0 58,-12 79,-33l3 -3 0 0zm1300 -45l-1 -2 0 0 -62 -112 -77 112 0 0 -1 1c3,-1 7,-1 10,-1l118 0c4,0 9,1 13,2zm1449 45c19,-21 30,-47 30,-76 0,-30 -12,-58 -33,-79 -21,-21 -49,-33 -79,-33 -29,0 -56,11 -77,31 -1,1 -1,1 -2,2 -21,21 -33,49 -33,79 0,30 12,58 32,79l0 0c21,21 49,32 79,32 30,0 58,-12 79,-33l3 -3 0 0zm1300 -45l-1 -2 0 0 -62 -112 -77 112 0 0 -1 1c3,-1 7,-1 10,-1l118 0c4,0 9,1 13,2z"/>
   <rect class="fil2" width="6439" height="1981"/>
  </g>
 </g>
</svg>
